<svg width="42" height="42" viewBox="0 0 42 42" fill="none" xmlns="http://www.w3.org/2000/svg">
<path d="M2.25033 8.50002C1.10449 8.50002 0.166992 9.43752 0.166992 10.5834V37.6667C0.166992 39.9584 2.04199 41.8334 4.33366 41.8334H31.417C32.5628 41.8334 33.5003 40.8959 33.5003 39.75C33.5003 38.6042 32.5628 37.6667 31.417 37.6667H6.41699C5.27116 37.6667 4.33366 36.7292 4.33366 35.5834V10.5834C4.33366 9.43752 3.39616 8.50002 2.25033 8.50002ZM37.667 0.166687H12.667C10.3753 0.166687 8.50033 2.04169 8.50033 4.33335V29.3334C8.50033 31.625 10.3753 33.5 12.667 33.5H37.667C39.9587 33.5 41.8337 31.625 41.8337 29.3334V4.33335C41.8337 2.04169 39.9587 0.166687 37.667 0.166687ZM33.5003 18.9167H27.2503V25.1667C27.2503 26.3125 26.3128 27.25 25.167 27.25C24.0212 27.25 23.0837 26.3125 23.0837 25.1667V18.9167H16.8337C15.6878 18.9167 14.7503 17.9792 14.7503 16.8334C14.7503 15.6875 15.6878 14.75 16.8337 14.75H23.0837V8.50002C23.0837 7.35419 24.0212 6.41669 25.167 6.41669C26.3128 6.41669 27.2503 7.35419 27.2503 8.50002V14.75H33.5003C34.6462 14.75 35.5837 15.6875 35.5837 16.8334C35.5837 17.9792 34.6462 18.9167 33.5003 18.9167Z" fill="#323232"/>
</svg>
